<?xml version="1.0" encoding="iso-8859-1"?>
<!-- Generator: Adobe Illustrator 19.0.0, SVG Export Plug-In . SVG Version: 6.00 Build 0)  -->
<svg version="1.1" id="Layer_1" xmlns="http://www.w3.org/2000/svg" xmlns:xlink="http://www.w3.org/1999/xlink" x="0px" y="0px"
	 viewBox="0 0 512 512" style="enable-background:new 0 0 512 512;" xml:space="preserve">
<path style="fill:#A35895;" d="M512,256c0,33.443-6.418,65.398-18.087,94.677c-3.931,9.893-8.472,19.486-13.568,28.724
	c-26.115,47.388-66.819,85.605-116.05,108.622c-5.407,2.532-10.926,4.874-16.533,7.028c-28.48,10.948-59.424,16.943-91.757,16.943
	c-32.344,0-63.277-5.996-91.768-16.943c-52.451-20.141-96.597-57.048-125.854-104.17C14.045,351.72,0,305.498,0,256
	s14.045-95.72,38.384-134.881c4.797-7.739,10.004-15.2,15.589-22.362C67.207,81.78,82.53,66.513,99.573,53.356
	c7.306-5.663,14.934-10.926,22.85-15.778c38.894-23.827,84.628-37.573,133.582-37.573C397.382,0.006,512,114.612,512,256z"/>
<path style="fill:#E9E4D8;" d="M364.295,37.579v450.444c-5.407,2.532-10.926,4.874-16.533,7.028H164.238
	c-52.451-20.141-96.597-57.048-125.854-104.17V98.757l61.19-61.178L364.295,37.579L364.295,37.579z"/>
<g>
	<polygon style="fill:#42577F;" points="219.322,149.714 90.892,149.714 90.892,138.611 237.871,138.611 	"/>
	<polygon style="fill:#42577F;" points="207.313,186.53 90.892,186.53 90.892,175.427 214.554,175.427 	"/>
	<polygon style="fill:#42577F;" points="216.404,223.346 90.892,223.346 90.892,212.242 208.23,212.242 	"/>
	<polygon style="fill:#42577F;" points="237.5,260.161 90.892,260.161 90.892,249.058 222.461,249.058 	"/>
	<polygon style="fill:#42577F;" points="306.71,296.976 90.892,296.976 90.892,285.873 258.987,285.873 	"/>
	<rect x="90.89" y="322.691" style="fill:#42577F;" width="220.897" height="11.103"/>
	<rect x="90.89" y="396.316" style="fill:#42577F;" width="220.897" height="11.103"/>
	<rect x="90.89" y="433.134" style="fill:#42577F;" width="220.897" height="11.103"/>
	<rect x="90.89" y="359.509" style="fill:#42577F;" width="220.897" height="11.103"/>
</g>
<polygon style="fill:#D3CEC2;" points="99.57,37.58 99.57,98.753 38.384,98.753 "/>
<path style="fill:#AA5013;" d="M493.913,350.677c-3.931,9.893-8.472,19.486-13.568,28.724c-2.099-0.755-4.075-1.976-5.751-3.653
	l-15.1-15.111l-7.861-7.85l-66.996-67.008l-1.11-1.11l22.195-22.184L493.913,350.677z"/>
<circle style="fill:#F0A037;" cx="317.695" cy="196.648" r="111.465"/>
<path style="fill:#E0DACD;" d="M379.995,258.953c-34.409,34.408-90.202,34.408-124.611,0c-0.422-0.422-0.844-0.855-1.255-1.288
	c-4.652-4.841-8.638-10.071-11.969-15.601c-6.74-11.181-10.77-23.539-12.091-36.13c-0.555-5.185-0.633-10.404-0.266-15.6
	c0.899-12.502,4.441-24.849,10.648-36.13c3.008-5.485,6.662-10.725,10.947-15.6c1.266-1.455,2.598-2.876,3.986-4.262
	c34.409-34.42,90.202-34.42,124.611,0C414.403,168.751,414.403,224.545,379.995,258.953L379.995,258.953z"/>
<g>
	<path style="fill:#42577F;" d="M333.728,138.606v15.6H240.45c3.008-5.485,6.662-10.725,10.947-15.6L333.728,138.606
		L333.728,138.606z"/>
	<path style="fill:#42577F;" d="M333.728,242.066v15.601h-79.599c-4.652-4.841-8.638-10.071-11.969-15.601H333.728L333.728,242.066z
		"/>
	<path style="fill:#42577F;" d="M333.728,190.336v15.6H230.069c-0.555-5.185-0.633-10.404-0.266-15.6H333.728L333.728,190.336z"/>
</g>
<path style="fill:#F0EDE6;" d="M279.922,117.022c-0.078,0.044-0.167,0.078-0.255,0.122c-0.511,0.244-1.01,0.5-1.521,0.744
	c-2.265,1.144-4.486,2.376-6.662,3.72c-0.544,0.333-1.088,0.677-1.621,1.021c-0.489,0.322-0.977,0.633-1.454,0.966
	c-0.089,0.056-0.167,0.111-0.255,0.167c-0.044,0.033-0.089,0.067-0.133,0.089c-0.056,0.044-0.111,0.078-0.167,0.122
	c-0.4,0.278-0.788,0.555-1.188,0.833c-0.522,0.366-1.044,0.755-1.566,1.144c-0.266,0.189-0.522,0.389-0.788,0.588
	c-0.255,0.2-0.5,0.389-0.755,0.588c-0.522,0.4-1.021,0.811-1.532,1.221c-0.511,0.411-1.01,0.833-1.51,1.255
	c-0.5,0.422-0.988,0.855-1.488,1.299c-0.411,0.366-0.822,0.744-1.221,1.121c-0.566,0.522-1.121,1.044-1.677,1.588l-0.011,0.011
	c-0.056,0.056-0.111,0.111-0.167,0.155l-0.033,0.033c-0.044,0.056-0.1,0.1-0.155,0.155c-0.011,0.011-0.022,0.022-0.033,0.033
	l-0.155,0.155c0,0.011-0.011,0.011-0.022,0.022c-0.056,0.056-0.111,0.111-0.167,0.167c-1.388,1.388-2.72,2.809-3.986,4.264h11.669
	c2.82-4.863,6.151-9.515,9.982-13.879c1.266-1.455,2.598-2.876,3.986-4.264c1.466-1.466,2.987-2.854,4.53-4.197
	C281.021,116.511,280.466,116.766,279.922,117.022z M251.453,176.457c0.544-7.539,2.043-15.023,4.519-22.251H240.45
	c-3.098,5.64-5.54,11.547-7.317,17.61c-1.777,6.051-2.887,12.269-3.331,18.52h21.751
	C251.153,185.717,251.131,181.076,251.453,176.457z"/>
<path style="fill:#A2ADC0;" d="M263.072,138.606h-11.674c-4.286,4.875-7.939,10.115-10.947,15.6l0,0h15.519
	c1.626-4.757,3.669-9.401,6.132-13.879C262.418,139.751,262.741,139.177,263.072,138.606L263.072,138.606z"/>
<path style="fill:#F0EDE6;" d="M263.811,228.187c-4.241-7.028-7.406-14.523-9.504-22.251h-24.238
	c1.321,12.591,5.352,24.949,12.091,36.13h32.01C270.206,237.713,266.753,233.072,263.811,228.187z M364.295,267.27
	c-8.139,2.398-16.566,3.597-24.982,3.597c-16.122,0-32.255-4.397-46.422-13.202h-38.761c0.411,0.433,0.833,0.866,1.255,1.288
	c0.178,0.178,0.355,0.355,0.544,0.533c0.178,0.178,0.355,0.355,0.544,0.533l1.088,1.033c0.144,0.133,0.278,0.255,0.422,0.378
	c0.366,0.344,0.733,0.677,1.099,0.999c0.455,0.411,0.91,0.811,1.366,1.21c0.422,0.366,0.844,0.722,1.277,1.077
	c0.178,0.144,0.355,0.289,0.533,0.422c0.422,0.355,0.855,0.7,1.299,1.033c0.266,0.211,0.533,0.422,0.811,0.622
	c0.477,0.378,0.955,0.733,1.443,1.088c0.522,0.378,1.044,0.755,1.577,1.121c0.577,0.411,1.155,0.799,1.743,1.199
	c0.633,0.411,1.277,0.822,1.921,1.221c0.622,0.389,1.244,0.766,1.865,1.133c2.398,1.421,4.852,2.72,7.35,3.886
	c0.544,0.255,1.088,0.511,1.643,0.744c0.244,0.111,0.5,0.222,0.755,0.333c0.477,0.211,0.966,0.422,1.454,0.622
	c0.355,0.144,0.722,0.289,1.077,0.422c0.355,0.144,0.711,0.289,1.077,0.422c0.533,0.211,1.077,0.411,1.621,0.6
	c0.389,0.144,0.777,0.278,1.166,0.411c0.489,0.167,0.977,0.333,1.477,0.489c0.022,0.011,0.056,0.022,0.089,0.022
	c0.078,0.022,0.155,0.056,0.233,0.078c0.422,0.144,0.844,0.278,1.277,0.4c0.011,0,0.033,0.011,0.044,0.011
	c0.355,0.111,0.699,0.211,1.066,0.311c0.91,0.266,1.832,0.522,2.754,0.744c0.4,0.111,0.811,0.211,1.221,0.3
	c0.266,0.067,0.533,0.133,0.811,0.189c0.5,0.122,0.999,0.233,1.51,0.333c0.566,0.122,1.144,0.233,1.71,0.344
	c0.067,0.022,0.133,0.033,0.2,0.044c0.089,0.011,0.178,0.022,0.266,0.044c0.033,0,0.056,0.011,0.089,0.011
	c0.289,0.056,0.577,0.1,0.866,0.155c0.289,0.044,0.566,0.1,0.855,0.144c0.666,0.1,1.321,0.2,1.976,0.3
	c0.044,0,0.089,0.011,0.133,0.011c0.644,0.089,1.277,0.167,1.91,0.244c0.677,0.078,1.343,0.144,2.021,0.211
	c1.343,0.122,2.698,0.211,4.042,0.278c1.355,0.056,2.698,0.089,4.053,0.089c3.22,0,6.451-0.178,9.66-0.522
	c0.633-0.078,1.277-0.155,1.921-0.233c0.766-0.1,1.532-0.211,2.298-0.333c0.711-0.111,1.432-0.233,2.143-0.366
	c0.711-0.133,1.421-0.278,2.132-0.422c1.421-0.3,2.831-0.633,4.241-0.999c0.7-0.189,1.41-0.378,2.11-0.577
	c2.099-0.611,4.175-1.288,6.24-2.054c0.688-0.255,1.366-0.522,2.054-0.788c4.763-1.921,9.393-4.264,13.835-7.039
	c3.886-2.42,7.628-5.185,11.181-8.272C371.834,264.783,368.092,266.159,364.295,267.27z"/>
<g>
	<path style="fill:#A2ADC0;" d="M274.169,242.066H242.16c3.331,5.529,7.317,10.759,11.969,15.601l0,0h38.76
		c-5.635-3.501-10.961-7.698-15.854-12.591c-0.422-0.422-0.844-0.855-1.255-1.288C275.234,243.218,274.697,242.644,274.169,242.066
		L274.169,242.066z"/>
	<path style="fill:#A2ADC0;" d="M251.553,190.336h-21.751c-0.149,2.111-0.224,4.226-0.224,6.34c0,3.09,0.161,6.181,0.491,9.26l0,0
		h24.243c-1.237-4.562-2.101-9.205-2.591-13.879C251.659,191.484,251.603,190.91,251.553,190.336L251.553,190.336z"/>
</g>
<path style="fill:#BC75B2;" d="M382.397,256.444V136.852C413.608,170.561,413.608,222.735,382.397,256.444z"/>
<rect x="461.108" y="329.913" transform="matrix(-0.7071 -0.7071 0.7071 -0.7071 552.2564 919.9673)" style="fill:#F0A037;" width="11.103" height="31.388"/>
<g>
</g>
<g>
</g>
<g>
</g>
<g>
</g>
<g>
</g>
<g>
</g>
<g>
</g>
<g>
</g>
<g>
</g>
<g>
</g>
<g>
</g>
<g>
</g>
<g>
</g>
<g>
</g>
<g>
</g>
</svg>
