<svg id="Layer_1" height="512" viewBox="0 0 512 512" width="512" xmlns="http://www.w3.org/2000/svg" data-name="Layer 1"><path d="m198.197 132h-7.569l1.903 8h3.759z"/><path d="m244 165.069c0-17.545-14.34-33.069-30.819-33.069h-4.657l-3.234 12.612 6.206 32.723a5 5 0 0 1 -2.1 5.064l-12.172 8.3a4.994 4.994 0 0 1 -5.636-.008l-12.168-8.316a5.025 5.025 0 0 1 -2.092-5.083l6.219-32.606-3.247-12.686h-4.656c-16.478 0-30.644 15.524-30.644 33.069v33.931h99z"/><path d="m218.6 88.319c0-13.6-10.85-24.671-24.185-24.671s-24.184 11.068-24.184 24.671 10.849 24.672 24.184 24.672 24.185-11.068 24.185-24.672z"/><path d="m318 90h62.115l-62.115-60.275z"/><path d="m194.413 180.517 6.648-4.533-5.029-26.454-3.213-.001-5.049 26.452z"/><path d="m397 459.615c0 2.761-1.936 5.385-4.7 5.385h-256.3v24h288v-378h-27z"/><path d="m387 100h-73.777a5.473 5.473 0 0 1 -5.223-5.316v-71.684h-220v432h299zm-252 65.069c0-23.269 18.457-43.069 40.646-43.069h11.244c-15.241-3-26.661-17.269-26.661-33.765a34.187 34.187 0 1 1 68.369.017c0 16.5-11.421 30.748-26.661 33.748h11.244c22.189 0 40.819 19.8 40.819 43.069v39.012a4.833 4.833 0 0 1 -4.884 4.919h-109.4a4.692 4.692 0 0 1 -4.716-4.919zm-22 34.96a5 5 0 0 1 -10 0v-130.507a5 5 0 1 1 10 0zm0-150.585a5 5 0 1 1 -10 0v-3.6a5 5 0 0 1 10 0zm99.514 361.556h-74.326a5 5 0 0 1 0-10h74.326a5 5 0 0 1 0 10zm120-41h-194.326a5 5 0 0 1 0-10h194.326a5 5 0 0 1 0 10zm0-42h-194.326a5 5 0 0 1 0-10h194.326a5 5 0 0 1 0 10zm0-41h-194.326a5 5 0 0 1 0-10h194.326a5 5 0 0 1 0 10zm0-41h-194.326a5 5 0 0 1 0-10h194.326a5 5 0 0 1 0 10z"/></svg>